<?xml version="1.0" encoding="UTF-8"?>
<svg version="1.1" xmlns="http://www.w3.org/2000/svg" width="512" height="512">
<path d="M0 0 C4.65197012 2.15984327 8.00022128 5.23152363 10 10 C10.59375011 14.04825489 10.54646391 18.06305811 10.51898193 22.14865112 C10.53023381 24.00006484 10.53023381 24.00006484 10.541713 25.88888085 C10.55848789 29.30749036 10.5574244 32.72524984 10.54880548 36.14383364 C10.54385917 39.83297171 10.56194732 43.52200564 10.57722473 47.21110535 C10.60053702 53.60021223 10.60928527 59.98920562 10.60811615 66.37835312 C10.6064469 75.61593707 10.62678176 84.85336972 10.65247145 94.09091331 C10.69355523 109.07850515 10.71686607 124.06606977 10.72900391 139.05371094 C10.74083209 153.61200578 10.76102822 168.17024938 10.79248047 182.72851562 C10.79538462 184.07477962 10.79538462 184.07477962 10.79834744 185.44824086 C10.80811202 189.95082281 10.81804113 194.45340438 10.82805204 198.95598578 C10.91087769 236.30396668 10.9648612 273.65194532 11 311 C11.51315262 310.48223842 12.02630524 309.96447683 12.55500793 309.43102551 C25.05284012 296.82268124 37.56455699 284.22827032 50.09179688 271.64914227 C56.14959431 265.56558392 62.20263575 259.47743212 68.24462891 253.37817383 C73.51199887 248.06090449 78.78815479 242.75253884 84.07496357 237.45459396 C86.87295448 234.65009543 89.66640522 231.84139355 92.44937134 229.02197838 C95.07162434 226.36566289 97.70551189 223.72145593 100.34859276 221.08586884 C101.77252504 219.65991583 103.18402201 218.22157855 104.595047 216.78285217 C109.78672049 211.63263189 114.35708025 207.22967615 122.04666138 206.9166975 C126.98023072 207.26280411 130.26351377 208.85795476 134 212 C137.59325747 216.27306293 139.27177079 220.39713495 139 226 C137.62668012 231.76257265 134.89767368 235.83139923 130.68183899 239.95307922 C130.14589133 240.49682684 129.60994367 241.04057445 129.05775517 241.60079926 C127.27322695 243.40514305 125.47151722 245.19123261 123.66918945 246.9777832 C122.38021319 248.27354017 121.09230183 249.57035719 119.80537415 250.8681488 C116.31675439 254.37951407 112.81256194 257.87493715 109.30463052 261.366997 C105.63065909 265.02828508 101.96893049 268.70178493 98.30522156 272.37333679 C92.15133088 278.53631688 85.98698933 284.68869605 79.81665039 290.83520508 C72.68916482 297.93548103 65.57987052 305.05358996 58.47975761 312.18122989 C52.37672576 318.30697177 46.26397861 324.42289068 40.14304703 330.53074712 C36.4901646 334.17584558 32.84071789 337.82421151 29.20000648 341.48147011 C25.77622481 344.91972454 22.34038602 348.34546115 18.89497185 351.76203346 C17.63457621 353.01583344 16.37838708 354.27387889 15.12682343 355.53649521 C13.41357922 357.26346552 11.68556635 358.97420405 9.95307922 360.68183899 C9.46482314 361.18124868 8.97656705 361.68065838 8.47351533 362.19520169 C4.41667826 366.14041704 -0.33841096 368.82239213 -6.06317157 369.10007554 C-13.63637439 368.50292714 -18.50656807 363.79259711 -23.63664246 358.64424133 C-24.17051411 358.11631192 -24.70438577 357.58838251 -25.25443536 357.04445523 C-27.03008204 355.28605877 -28.79860018 353.52067026 -30.56713867 351.75512695 C-31.84354684 350.48798363 -33.12034643 349.2212345 -34.39750671 347.95484924 C-37.85686584 344.52165365 -41.30960221 341.08187419 -44.76035094 337.64002633 C-46.91804126 335.48820894 -49.07689566 333.33756613 -51.23610878 331.18727684 C-57.99658015 324.45412823 -64.75305239 317.71700463 -71.50374144 310.97404796 C-79.28767043 303.19908502 -87.08450569 295.43737937 -94.89285105 287.68693954 C-100.93500859 281.68803594 -106.965567 275.67763192 -112.98747236 269.65839928 C-116.58140122 266.06656431 -120.1800024 262.47973223 -123.79073143 258.90477943 C-127.18653753 255.5419719 -130.56768322 252.16508246 -133.93824959 248.77698326 C-135.17502876 247.53866552 -136.41692028 246.30542876 -137.66432953 245.07781982 C-150.30745958 232.62364084 -150.30745958 232.62364084 -151 225 C-150.57664865 218.70624147 -148.80980681 214.29812523 -144 210 C-139.57904253 207.57920387 -135.44376095 206.59682472 -130.4375 207.375 C-121.51338493 210.08335247 -114.76466348 219.09506873 -108.37109375 225.51538086 C-107.44333633 226.44299225 -106.51557892 227.37060364 -105.55970764 228.32632446 C-103.03942377 230.84632381 -100.52221463 233.36937363 -98.00558472 235.89302135 C-95.36620891 238.53868837 -92.72396248 241.18148545 -90.08203125 243.82460022 C-85.09017519 248.8195527 -80.10087166 253.81704664 -75.11250114 258.81547982 C-69.42880494 264.51038988 -63.742237 270.20242878 -58.05543709 275.89423931 C-46.36711394 287.59298854 -34.68236652 299.2953024 -23 311 C-22.99910437 310.04805718 -22.99910437 310.04805718 -22.99819064 309.0768832 C-22.96230674 271.4743786 -22.90568328 233.87195849 -22.82207905 196.26952862 C-22.81206144 191.75585795 -22.80221733 187.24218691 -22.79248047 182.72851562 C-22.78956841 181.38061385 -22.78956841 181.38061385 -22.78659752 180.00548173 C-22.75556552 165.45015451 -22.73859352 150.89484305 -22.72680578 136.33948897 C-22.71440043 121.40743108 -22.68691299 106.47545606 -22.64538693 91.54345047 C-22.62023385 82.32752316 -22.60688404 73.11173323 -22.60857043 63.8957711 C-22.60860015 57.57841622 -22.59399711 51.26120141 -22.56783572 44.94390111 C-22.55316924 41.29759044 -22.54500418 37.65156705 -22.55419731 34.00523186 C-22.56399354 30.05285197 -22.54300201 26.10097799 -22.51898193 22.14865112 C-22.52674235 20.99495273 -22.53450277 19.84125435 -22.54249835 18.6525954 C-22.47552538 12.44854906 -22.18183272 8.7042792 -18 4 C-12.72867143 -1.00776214 -6.89190982 -0.92775709 0 0 Z " fill="#4BAF4F" transform="translate(262,32)"/>
<path d="M0 0 C5.4521357 2.53134872 6.4759981 4.71399714 10 10 C10 38.38 10 66.76 10 96 C136.72 96 263.44 96 394 96 C394 67.62 394 39.24 394 10 C399.17241379 2.24137931 399.17241379 2.24137931 404 0 C409.5997712 -0.75381535 414.33499991 -0.77303575 419.5 1.625 C423.44309216 5.37093755 426.16291168 8.68121353 426.50793457 14.22283936 C426.53154563 15.86551543 426.53338136 17.50859744 426.51757812 19.15136719 C426.52809204 20.50384048 426.52809204 20.50384048 426.53881836 21.88363647 C426.55637685 24.85503234 426.54477912 27.82546994 426.53125 30.796875 C426.53394647 32.87184837 426.53783018 34.9468205 426.54284668 37.02178955 C426.54873964 41.36946652 426.54018862 45.71681446 426.52148438 50.06445312 C426.49875211 55.61701194 426.51178313 61.16879488 426.53577423 66.72132492 C426.55028623 71.00752516 426.54560052 75.2935441 426.53526306 79.57975006 C426.53260773 81.62572574 426.53582321 83.67171825 426.54518127 85.71767426 C426.63151762 109.90905689 426.63151762 109.90905689 417.703125 119.46875 C411.05906005 125.44231298 403.9979959 128.2468195 395.04269791 128.25726891 C394.02378304 128.26252802 394.02378304 128.26252802 392.98428404 128.26789337 C390.70951303 128.27719272 388.43499885 128.27228791 386.16021729 128.26742554 C384.51224362 128.27116254 382.86427172 128.27576426 381.21630263 128.28115618 C376.68851502 128.29339546 372.16080124 128.29312462 367.63300085 128.29076743 C362.74942224 128.2903595 357.86586737 128.30139619 352.9822998 128.31088257 C343.41453419 128.32749879 333.84679322 128.3329924 324.27901438 128.33410732 C316.50177903 128.33505753 308.72455181 128.33916647 300.94731903 128.34550858 C278.89840906 128.36312292 256.84951857 128.37234718 234.80060151 128.37084763 C233.01743365 128.37072776 233.01743365 128.37072776 231.19824219 128.37060547 C230.00801239 128.37052371 228.8177826 128.37044195 227.59148523 128.37035771 C208.30247383 128.36954482 189.01354052 128.38868265 169.72455171 128.4168822 C149.91971056 128.44560747 130.11490751 128.45942268 110.310045 128.45769465 C99.19075584 128.45703061 88.07154854 128.46252901 76.95227814 128.48405075 C67.48482178 128.50225785 58.01748438 128.50661375 48.5500181 128.4930319 C43.72041877 128.48649982 38.89104769 128.48639379 34.06147003 128.5037384 C29.637302 128.5194635 25.21354331 128.51661123 20.78938529 128.49917014 C19.19181807 128.496099 17.59422035 128.49973694 15.99668911 128.51089029 C4.76113251 128.584116 -4.93215233 127.67598509 -13.46875 119.703125 C-20.16310953 112.25735776 -22.30102909 104.61023773 -22.29052734 94.78515625 C-22.29724457 93.87708221 -22.30396179 92.96900818 -22.31088257 92.03341675 C-22.32982189 89.04305496 -22.33378429 86.05291796 -22.3359375 83.0625 C-22.34236672 80.97794503 -22.34909518 78.89339097 -22.35610962 76.80883789 C-22.36807111 72.44447741 -22.37179145 68.08019603 -22.37060547 63.71582031 C-22.370402 58.12705435 -22.39773863 52.53879527 -22.43214989 46.95014954 C-22.45439594 42.64698968 -22.45844376 38.34395244 -22.45738602 34.04074097 C-22.4597441 31.980278 -22.46857927 29.91981175 -22.48405075 27.85940552 C-22.50367011 24.97752376 -22.49788918 22.09674364 -22.48583984 19.21484375 C-22.49707886 18.36687225 -22.50831787 17.51890076 -22.51989746 16.64523315 C-22.46295709 11.27964577 -21.53167801 8.27364421 -18 4 C-12.72867143 -1.00776214 -6.89190982 -0.92775709 0 0 Z " fill="#414141" transform="translate(54,352)"/>
</svg>
