<?xml version="1.0" encoding="UTF-8"?>
<svg version="1.1" xmlns="http://www.w3.org/2000/svg" width="512" height="512">
<path d="M0 0 C1.01790619 0.00215515 2.03581238 0.0043103 3.08456421 0.00653076 C17.69363523 0.05620146 32.02575853 0.30709809 46.375 3.3125 C47.34985352 3.51117676 48.32470703 3.70985352 49.32910156 3.91455078 C97.7109774 14.03517194 141.69928269 35.9516877 177.375 70.3125 C178.3640332 71.26068604 178.3640332 71.26068604 179.37304688 72.22802734 C188.86130305 81.37247479 197.6012044 90.66984009 205.375 101.3125 C206.23306152 102.46355017 207.09113451 103.61459177 207.94921875 104.765625 C213.98736829 112.95680614 219.34595521 121.47054105 224.375 130.3125 C224.73948242 130.94430176 225.10396484 131.57610352 225.47949219 132.22705078 C247.08534998 169.97532572 256.85198095 212.74189997 256.6875 255.9375 C256.68534485 256.95540619 256.6831897 257.97331238 256.68096924 259.02206421 C256.63129854 273.63113523 256.38040191 287.96325853 253.375 302.3125 C253.07698486 303.77478027 253.07698486 303.77478027 252.77294922 305.26660156 C242.65232806 353.6484774 220.7358123 397.63678269 186.375 433.3125 C185.74287598 433.97185547 185.11075195 434.63121094 184.45947266 435.31054688 C175.31502521 444.79880305 166.01765991 453.5387044 155.375 461.3125 C154.22394983 462.17056152 153.07290823 463.02863451 151.921875 463.88671875 C143.73224019 469.92427396 135.22961724 475.30707302 126.375 480.3125 C125.66778809 480.7146875 124.96057617 481.116875 124.23193359 481.53125 C101.09654164 494.5566741 75.92537591 503.30551461 49.9375 508.625 C49.21860596 508.77235596 48.49971191 508.91971191 47.7590332 509.0715332 C33.08339502 511.86090125 18.55831162 512.66142619 3.64770508 512.62817383 C0.70811513 512.6250221 -2.2304558 512.64854926 -5.16992188 512.67382812 C-18.54306192 512.71848737 -31.43916711 511.51301542 -44.625 509.3125 C-46.33055054 509.03031616 -46.33055054 509.03031616 -48.07055664 508.74243164 C-91.33802759 500.97044532 -132.38793216 480.98345309 -165.625 452.3125 C-166.37007813 451.67828125 -167.11515625 451.0440625 -167.8828125 450.390625 C-181.38779833 438.57948485 -194.05918743 425.82889772 -204.625 411.3125 C-205.48149066 410.16255169 -206.33826433 409.01281411 -207.1953125 407.86328125 C-213.23534209 399.67315742 -218.61867614 391.16870382 -223.625 382.3125 C-224.0271875 381.60528809 -224.429375 380.89807617 -224.84375 380.16943359 C-237.8691741 357.03404164 -246.61801461 331.86287591 -251.9375 305.875 C-252.08485596 305.15610596 -252.23221191 304.43721191 -252.3840332 303.6965332 C-255.35789088 288.05024391 -255.99800362 272.57681954 -255.9375 256.6875 C-255.93534485 255.66959381 -255.9331897 254.65168762 -255.93096924 253.60293579 C-255.88129854 238.99386477 -255.63040191 224.66174147 -252.625 210.3125 C-252.42632324 209.33764648 -252.22764648 208.36279297 -252.02294922 207.35839844 C-241.90232806 158.9765226 -219.9858123 114.98821731 -185.625 79.3125 C-184.99287598 78.65314453 -184.36075195 77.99378906 -183.70947266 77.31445312 C-174.56502521 67.82619695 -165.26765991 59.0862956 -154.625 51.3125 C-153.47394983 50.45443848 -152.32290823 49.59636549 -151.171875 48.73828125 C-142.98224019 42.70072604 -134.47961724 37.31792698 -125.625 32.3125 C-124.91778809 31.9103125 -124.21057617 31.508125 -123.48193359 31.09375 C-100.34654164 18.0683259 -75.17537591 9.31948539 -49.1875 4 C-48.46860596 3.85264404 -47.74971191 3.70528809 -47.0090332 3.5534668 C-31.36274391 0.57960912 -15.88931954 -0.06050362 0 0 Z " fill="#6DCD01" transform="translate(255.625,-0.3125)"/>
<path d="M0 0 C0.72445312 -0.03738281 1.44890625 -0.07476562 2.1953125 -0.11328125 C9.31673854 1.01825729 15.68141112 6.02085708 21.515625 10.02734375 C22.33842957 10.58607681 23.16123413 11.14480988 24.00897217 11.72047424 C25.78612977 12.92756482 27.56190446 14.13669346 29.33642578 15.34765625 C34.15923765 18.63774118 38.99354271 21.91083878 43.828125 25.18359375 C44.82718872 25.86018036 45.82625244 26.53676697 46.85559082 27.2338562 C57.13560258 34.18466586 67.49981723 41.00493785 77.875 47.8125 C97.44591662 60.66099529 116.88116875 73.70443195 136.25773621 86.84399414 C139.7046872 89.17953434 143.15577465 91.50627426 146.63793945 93.7890625 C147.71261475 94.49417969 148.78729004 95.19929688 149.89453125 95.92578125 C151.24575073 96.80230347 151.24575073 96.80230347 152.62426758 97.6965332 C156.27746664 100.31943423 158.85280949 103.26811898 160.875 107.3125 C161.27117431 113.15607111 160.86584005 117.10264959 157.875 122.3125 C153.22025079 127.04349964 147.62129426 130.63413031 142.078125 134.22265625 C141.22897522 134.77855942 140.37982544 135.33446259 139.50494385 135.9072113 C137.67281706 137.10632055 135.83933686 138.30336399 134.00463867 139.49853516 C129.03202563 142.73884917 124.07062508 145.99623047 119.109375 149.25390625 C118.0879541 149.92430939 117.0665332 150.59471252 116.01416016 151.28543091 C105.74067796 158.038817 95.55310909 164.91657476 85.375 171.8125 C68.46409495 183.26354431 51.45436349 194.55746964 34.38671875 205.7734375 C33.51046844 206.34927582 32.63421814 206.92511414 31.73141479 207.5184021 C30.04476236 208.62608163 28.3575457 209.73290261 26.66970825 210.83877563 C23.13120892 213.15929211 19.60065292 215.4878983 16.10498047 217.87255859 C15.03779785 218.59910645 13.97061523 219.3256543 12.87109375 220.07421875 C11.5416272 220.99207153 11.5416272 220.99207153 10.18530273 221.9284668 C5.76395876 224.57716161 0.9632247 225.01974359 -4.125 224.3125 C-9.41612204 221.56518663 -13.21875244 218.03124267 -15.125 212.3125 C-15.22721566 209.65357766 -15.27280834 207.02058951 -15.27217102 204.3613739 C-15.27768605 203.13268805 -15.27768605 203.13268805 -15.2833125 201.87918025 C-15.29435656 199.12476947 -15.29819438 196.37039641 -15.30200195 193.6159668 C-15.30826598 191.64498779 -15.31491273 189.67400997 -15.32191467 187.70303345 C-15.33932816 182.34141309 -15.34987708 176.97980164 -15.3581202 171.61816001 C-15.36326891 168.26974377 -15.36934466 164.92133031 -15.37563133 161.57291603 C-15.39468314 151.10029601 -15.40891512 140.62768305 -15.4172433 130.15504903 C-15.42702107 118.05879813 -15.45335478 105.96272996 -15.49374419 93.86654347 C-15.52387974 84.52124203 -15.53870968 75.17599305 -15.54202431 65.83064395 C-15.54437742 60.24686856 -15.55337208 54.6632884 -15.57848549 49.07956505 C-15.60172678 43.82726664 -15.60601527 38.57529254 -15.59572411 33.32295609 C-15.5952277 31.39523173 -15.60157888 29.46749163 -15.61528015 27.5398159 C-15.63294185 24.90767934 -15.62592144 22.27671393 -15.61274719 19.64457703 C-15.62920106 18.50074123 -15.62920106 18.50074123 -15.64598733 17.33379763 C-15.58371466 12.1793565 -14.35943076 9.29005414 -11.125 5.3125 C-7.411754 2.04130709 -4.95251169 0.16393331 0 0 Z " fill="#FEFEFE" transform="translate(207.125,143.6875)"/>
</svg>
