<?xml version="1.0" encoding="UTF-8"?>
<svg version="1.1" xmlns="http://www.w3.org/2000/svg" width="512" height="512">
<path d="M0 0 C1.79509038 -0.00543041 3.5901763 -0.01255819 5.38525391 -0.02124023 C10.22828244 -0.03936733 15.07096746 -0.0324502 19.91400146 -0.01972389 C25.00127026 -0.00954091 30.0885112 -0.0190042 35.17578125 -0.02526855 C43.71619911 -0.0325296 52.25647824 -0.02299785 60.796875 -0.00390625 C70.64676532 0.01785948 80.49632436 0.01080701 90.34620667 -0.01121187 C98.82897257 -0.02940994 107.3116392 -0.0319027 115.79441833 -0.0214572 C120.84949161 -0.01524644 125.90440958 -0.01431968 130.95947266 -0.02760315 C135.71375912 -0.03922538 140.46762174 -0.03102041 145.22186279 -0.00802612 C146.95838724 -0.00277289 148.69494785 -0.00419419 150.43145752 -0.01307678 C164.4226638 -0.07800298 176.40771251 1.3117841 186.9375 11.51757812 C197.88158857 22.80909808 198.531041 35.72964549 198.45507812 50.58007812 C198.46050853 52.37516851 198.46763632 54.17025443 198.47631836 55.96533203 C198.49444545 60.80836056 198.48752833 65.65104559 198.47480202 70.49407959 C198.46461903 75.58134839 198.47408233 80.66858932 198.48034668 85.75585938 C198.48760772 94.29627723 198.47807598 102.83655637 198.45898438 111.37695312 C198.43721865 121.22684345 198.44427111 131.07640249 198.46629 140.92628479 C198.48448806 149.40905069 198.48698082 157.89171733 198.47653532 166.37449646 C198.47032457 171.42956974 198.4693978 176.48448771 198.48268127 181.53955078 C198.4943035 186.29383724 198.48609853 191.04769986 198.46310425 195.80194092 C198.45785101 197.53846536 198.45927232 199.27502597 198.46815491 201.01153564 C198.5331223 215.01161965 197.13584483 226.97455763 186.9375 237.51757812 C175.66157839 248.63903506 161.76130605 249.11201814 146.85327148 249.03515625 C145.06788566 249.04058806 143.28250433 249.04771661 141.49713135 249.05639648 C136.68515188 249.07450568 131.87351857 249.06761434 127.06153369 249.05488014 C122.00496725 249.04468932 116.94842868 249.05416245 111.89186096 249.0604248 C103.40449755 249.06768293 94.9172738 249.05816112 86.42993164 249.0390625 C76.64193583 249.01729031 66.85427332 249.02435511 57.06628555 249.04636812 C48.63445431 249.06456616 40.20272293 249.06705917 31.77087837 249.05661345 C26.74711879 249.05040358 21.72351547 249.04947359 16.69976616 249.0627594 C11.97583415 249.07438187 7.2523287 249.06617624 2.52844238 249.04318237 C0.80320504 249.03792957 -0.92206871 249.03934969 -2.64729118 249.04823303 C-16.61118782 249.11346211 -28.61603292 247.64261544 -39.0625 237.51757812 C-50.00658857 226.22605817 -50.656041 213.30551076 -50.58007812 198.45507812 C-50.58550853 196.65998774 -50.59263632 194.86490182 -50.60131836 193.06982422 C-50.61944545 188.22679569 -50.61252833 183.38411066 -50.59980202 178.54107666 C-50.58961903 173.45380786 -50.59908233 168.36656693 -50.60534668 163.27929688 C-50.61260772 154.73887902 -50.60307598 146.19859988 -50.58398438 137.65820312 C-50.56221865 127.8083128 -50.56927111 117.95875376 -50.59129 108.10887146 C-50.60948806 99.62610556 -50.61198082 91.14343892 -50.60153532 82.66065979 C-50.59532457 77.60558651 -50.5943978 72.55066854 -50.60768127 67.49560547 C-50.6193035 62.74131901 -50.61109853 57.98745639 -50.58810425 53.23321533 C-50.58285101 51.49669089 -50.58427232 49.76013028 -50.59315491 48.02362061 C-50.6580811 34.03241433 -49.26829403 22.04736561 -39.0625 11.51757812 C-27.77098005 0.57348956 -14.85043263 -0.07596288 0 0 Z " fill="#FB5244" transform="translate(182.0625,131.482421875)"/>
<path d="M0 0 C1.02040375 0.00215515 2.0408075 0.0043103 3.09213257 0.00653076 C17.71960524 0.05616648 32.07013838 0.30330288 46.4375 3.3125 C47.41235352 3.51117676 48.38720703 3.70985352 49.39160156 3.91455078 C86.31241489 11.63772311 120.94992247 25.98240943 151.4375 48.3125 C152.29698242 48.93656738 152.29698242 48.93656738 153.17382812 49.57324219 C160.77359127 55.12556045 167.73865597 61.17862477 174.5625 67.6484375 C177.34431987 70.29312864 177.34431987 70.29312864 180.11328125 72.44140625 C182.22463267 74.14113286 183.88752019 75.80699704 185.625 77.875 C188.37641441 81.10672598 191.2208 84.21747916 194.125 87.3125 C231.87276807 128.88644123 256.34525303 187.80716544 256.640625 244.10546875 C256.64763931 245.00605515 256.65465363 245.90664154 256.66188049 246.83451843 C256.67927809 249.72306381 256.68573227 252.61140416 256.6875 255.5 C256.68851212 256.98055878 256.68851212 256.98055878 256.68954468 258.49102783 C256.67381228 272.96218559 256.30850014 287.08244611 253.4375 301.3125 C253.26057617 302.21436035 253.08365234 303.1162207 252.90136719 304.04541016 C251.60248713 310.51849895 250.09092874 316.92138488 248.4375 323.3125 C248.22786621 324.13250488 248.01823242 324.95250977 247.80224609 325.79736328 C237.09616294 366.73432636 214.71123755 404.00708888 185.4375 434.3125 C184.83856934 434.93334473 184.23963867 435.55418945 183.62255859 436.19384766 C175.96135197 444.09230455 168.23668417 451.6707538 159.4375 458.3125 C158.80537598 458.79396484 158.17325195 459.27542969 157.52197266 459.77148438 C146.33879563 468.24287774 134.76770511 475.6273185 122.4375 482.3125 C121.45330078 482.85100586 121.45330078 482.85100586 120.44921875 483.40039062 C87.61153942 501.17896857 49.34425538 512.31347023 11.86328125 512.515625 C10.98511749 512.52268463 10.10695374 512.52974426 9.20217896 512.53701782 C-27.52347692 512.76523323 -27.52347692 512.76523323 -44.5625 509.3125 C-45.59004395 509.10850586 -46.61758789 508.90451172 -47.67626953 508.69433594 C-91.22429293 499.8312069 -131.78614954 481.44864896 -165.5625 452.3125 C-166.30757813 451.67828125 -167.05265625 451.0440625 -167.8203125 450.390625 C-181.32529833 438.57948485 -193.99668743 425.82889772 -204.5625 411.3125 C-205.41899066 410.16255169 -206.27576433 409.01281411 -207.1328125 407.86328125 C-213.1734414 399.67160474 -218.53255071 391.15604922 -223.5625 382.3125 C-223.92698242 381.68069824 -224.29146484 381.04889648 -224.66699219 380.39794922 C-243.6658393 347.20446478 -255.47464915 307.33883814 -255.80078125 269.00390625 C-255.8105751 268.04762329 -255.82036896 267.09134033 -255.83045959 266.1060791 C-255.99790836 245.52373965 -255.9985829 225.51126294 -251.5625 205.3125 C-251.23306396 203.77529297 -251.23306396 203.77529297 -250.89697266 202.20703125 C-243.83799763 170.03449115 -231.0501643 139.58698937 -212.5625 112.3125 C-212.17336426 111.7364502 -211.78422852 111.16040039 -211.38330078 110.56689453 C-205.05291925 101.26971396 -198.05551277 92.69315385 -190.5625 84.3125 C-190.04333008 83.73016602 -189.52416016 83.14783203 -188.98925781 82.54785156 C-183.17663789 76.05775331 -177.28304285 69.87642769 -170.5625 64.3125 C-169.6446875 63.50683594 -168.726875 62.70117188 -167.78125 61.87109375 C-154.78319564 50.50217281 -140.60191404 40.77722643 -125.5625 32.3125 C-124.85963867 31.91321289 -124.15677734 31.51392578 -123.43261719 31.10253906 C-97.22337468 16.34471944 -68.28336987 6.81175548 -38.5625 2.3125 C-37.44367432 2.13517334 -36.32484863 1.95784668 -35.17211914 1.77514648 C-23.45014053 0.09373659 -11.82751024 -0.04484341 0 0 Z M-162.828125 86.625 C-164.46797243 88.22052723 -166.12290286 89.79874925 -167.78125 91.375 C-175.14657951 98.45912062 -181.46895924 106.12070105 -187.5625 114.3125 C-187.98772949 114.87694824 -188.41295898 115.44139648 -188.85107422 116.02294922 C-219.18651534 156.43521507 -235.05038166 205.21535555 -234.9375 255.625 C-234.93695618 256.54358795 -234.93641235 257.4621759 -234.93585205 258.40859985 C-234.77276071 318.5899578 -211.29666527 376.40520976 -169.25 419.578125 C-167.65447277 421.21797243 -166.07625075 422.87290286 -164.5 424.53125 C-157.41576139 431.89539158 -149.73707236 438.19856064 -141.5625 444.3125 C-140.139375 445.39337891 -140.139375 445.39337891 -138.6875 446.49609375 C-90.20070615 482.64976417 -27.89132048 498.3008091 31.92407227 490.11474609 C81.62772467 482.79583493 127.62508672 461.13687206 163.703125 426 C165.34297243 424.40447277 166.99790286 422.82625075 168.65625 421.25 C176.02039158 414.16576139 182.32356064 406.48707236 188.4375 398.3125 C189.15808594 397.36375 189.87867188 396.415 190.62109375 395.4375 C210.73569329 368.46119496 224.4217032 337.15746389 231.4375 304.3125 C231.75291748 302.84876953 231.75291748 302.84876953 232.07470703 301.35546875 C243.90423438 243.58466533 231.8385956 180.03834296 199.95043945 130.51635742 C196.29439584 124.98242678 192.47094091 119.578153 188.4375 114.3125 C187.81488281 113.49652344 187.19226563 112.68054688 186.55078125 111.83984375 C181.20585324 104.99876956 175.41226326 98.60131636 169.4375 92.3125 C168.93057617 91.77689453 168.42365234 91.24128906 167.90136719 90.68945312 C159.99448152 82.39289561 151.63848512 75.13506891 142.4375 68.3125 C141.87450195 67.8887207 141.31150391 67.46494141 140.73144531 67.02832031 C110.19076617 44.10078219 74.99117824 29.79653609 37.4375 23.3125 C36.74333984 23.18794434 36.04917969 23.06338867 35.33398438 22.93505859 C-35.64363858 10.49739102 -111.74818452 36.87757971 -162.828125 86.625 Z " fill="#FB5244" transform="translate(255.5625,-0.31250000000000006)"/>
</svg>
