<?xml version="1.0" encoding="UTF-8"?>
<svg version="1.1" xmlns="http://www.w3.org/2000/svg" width="512" height="512">
<path d="M0 0 C40.73258691 37.09857902 66.02515215 90.53183589 68.75683594 145.60009766 C71.35658136 205.24748248 50.85149524 260.57794808 10.75683594 304.60009766 C-27.93161451 345.99314124 -82.40228689 369.90666696 -138.90722656 371.81884766 C-198.08328558 373.11538802 -253.02557579 351.0823785 -295.70410156 310.33056641 C-335.85961751 271.24795203 -358.30392739 216.78829495 -359.52661133 160.9831543 C-360.09627253 102.0016777 -337.31308052 47.55856006 -296.32836914 5.44873047 C-227.86859712 -63.56894457 -117.13368472 -75.618845 0 0 Z " fill="#E63946" transform="translate(401.2431640625,98.39990234375)"/>
<path d="M0 0 C0.92422256 -0.00671722 1.84844513 -0.01343445 2.80067444 -0.02035522 C5.85179035 -0.03933101 8.9026862 -0.04325932 11.95385742 -0.04541016 C14.07989085 -0.05183871 16.20592339 -0.05856712 18.33195496 -0.06558228 C22.78805593 -0.07755424 27.24407939 -0.08126321 31.70019531 -0.08007812 C37.39976892 -0.07987502 43.09884343 -0.10716892 48.79829884 -0.14162254 C53.18989834 -0.16390183 57.58137796 -0.16791533 61.97302818 -0.16685867 C64.07370408 -0.16921339 66.17438335 -0.17802958 68.27500343 -0.19352341 C71.21884336 -0.21320241 74.16161014 -0.20733743 77.10546875 -0.1953125 C77.96652222 -0.20655151 78.82757568 -0.21779053 79.71472168 -0.22937012 C86.42428429 -0.16001181 91.64998119 1.61815339 96.77026367 6.03662109 C97.43928711 6.87386719 97.43928711 6.87386719 98.12182617 7.72802734 C98.81405273 8.56140625 98.81405273 8.56140625 99.52026367 9.41162109 C102.94339011 14.65532751 103.04378298 19.36244493 103.03735352 25.43603516 C103.04407074 26.34889786 103.05078796 27.26176056 103.05770874 28.20228577 C103.07668492 31.21613023 103.08061302 34.22975187 103.08276367 37.24365234 C103.08919278 39.3448699 103.09592122 41.44608656 103.10293579 43.54730225 C103.11490827 47.95212885 103.11861673 52.35687703 103.11743164 56.76171875 C103.11722867 62.39169444 103.14450891 68.02116413 103.17897606 73.65102005 C103.20127343 77.99204798 103.20526828 82.3329548 103.20421219 86.67403412 C103.20656471 88.74876394 103.21536846 90.82349728 103.23087692 92.89817047 C103.25059031 95.8082818 103.24467733 98.71731065 103.23266602 101.62744141 C103.24390503 102.47554886 103.25514404 103.32365631 103.26672363 104.19746399 C103.19668414 110.91415015 101.64659973 117.10557299 97.02606773 122.18051529 C90.90375472 127.90782465 84.54296476 128.58961888 76.47192383 128.58105469 C75.55730881 128.58777191 74.64269379 128.59448914 73.70036316 128.60140991 C70.68714922 128.62035449 67.67415841 128.62431223 64.66088867 128.62646484 C62.55870473 128.63289484 60.45652168 128.63962335 58.3543396 128.64663696 C53.95129319 128.6586006 49.54832519 128.66231868 45.14526367 128.66113281 C39.51409775 128.66092959 33.8834363 128.68823949 28.25238991 128.72267723 C23.9114045 128.74495578 19.57054035 128.74897007 15.22950363 128.74791336 C13.1539473 128.75026757 11.07838754 128.75908091 9.00288773 128.77457809 C6.09507523 128.79425861 3.188349 128.78839192 0.28051758 128.77636719 C-0.56961411 128.7876062 -1.41974579 128.79884521 -2.29563904 128.8104248 C-8.97305107 128.74054993 -14.14607143 126.91776837 -19.27661133 122.57958984 C-19.72262695 122.03044922 -20.16864258 121.48130859 -20.62817383 120.91552734 C-21.0896582 120.37154297 -21.55114258 119.82755859 -22.02661133 119.26708984 C-25.44764252 113.75421793 -25.55035618 108.28741821 -25.54370117 102.015625 C-25.5504184 101.10100998 -25.55713562 100.18639496 -25.5640564 99.24406433 C-25.58300097 96.23085039 -25.58695871 93.21785958 -25.58911133 90.20458984 C-25.59554133 88.1024059 -25.60226984 86.00022285 -25.60928345 83.89804077 C-25.62124708 79.49499436 -25.62496517 75.09202636 -25.6237793 70.68896484 C-25.62357608 65.05779892 -25.65088597 59.42713748 -25.68532372 53.79609108 C-25.70760226 49.45510567 -25.71161655 45.11424153 -25.71055984 40.7732048 C-25.71291406 38.69764847 -25.72172739 36.62208871 -25.73722458 34.5465889 C-25.7569051 31.63877641 -25.7510384 28.73205017 -25.73901367 25.82421875 C-25.75025269 24.97408707 -25.7614917 24.12395538 -25.77307129 23.24806213 C-25.70323342 16.57418608 -23.90046948 11.35831067 -19.50708008 6.26708984 C-18.94891602 5.82107422 -18.39075195 5.37505859 -17.81567383 4.91552734 C-17.26008789 4.45404297 -16.70450195 3.99255859 -16.13208008 3.51708984 C-10.85709259 0.07354292 -6.11012334 -0.00638667 0 0 Z " fill="#ECEAE9" transform="translate(217.253173828125,191.70947265625)"/>
</svg>
